<svg width="25" height="24" viewBox="0 0 25 24" fill="none" xmlns="http://www.w3.org/2000/svg">
<g clip-path="url(#clip0_1_193)">
<path fill-rule="evenodd" clip-rule="evenodd" d="M10.2291 14.4787L10.2282 9.10956L15.4161 11.8034L10.2291 14.4787ZM21.6195 8.17943C21.6195 8.17943 21.4319 6.86262 20.8562 6.28274C20.1262 5.52164 19.3078 5.51788 18.9325 5.47332C16.2457 5.28003 12.2155 5.28003 12.2155 5.28003H12.2071C12.2071 5.28003 8.1769 5.28003 5.49004 5.47332C5.11472 5.51788 4.29664 5.52164 3.56628 6.28274C2.9906 6.86262 2.80328 8.17943 2.80328 8.17943C2.80328 8.17943 2.61127 9.72579 2.61127 11.2722V12.7219C2.61127 14.2682 2.80328 15.8146 2.80328 15.8146C2.80328 15.8146 2.9906 17.1314 3.56628 17.7113C4.29664 18.4723 5.25604 18.4483 5.68334 18.528C7.21936 18.6746 12.2112 18.72 12.2112 18.72C12.2112 18.72 16.2457 18.714 18.9325 18.5206C19.3078 18.4761 20.1262 18.4723 20.8562 17.7113C21.4319 17.1314 21.6195 15.8146 21.6195 15.8146C21.6195 15.8146 21.8112 14.2682 21.8112 12.7219V11.2722C21.8112 9.72579 21.6195 8.17943 21.6195 8.17943Z" fill="white"/>
</g>
<defs>
<clipPath id="clip0_1_193">
<rect width="24" height="24" fill="white" transform="translate(0.5)"/>
</clipPath>
</defs>
</svg>
