<svg width="29" height="29" viewBox="0 0 29 29" fill="none" xmlns="http://www.w3.org/2000/svg">
<g clip-path="url(#clip0_1_3323)">
<g clip-path="url(#clip1_1_3323)">
<mask id="mask0_1_3323" style="mask-type:luminance" maskUnits="userSpaceOnUse" x="0" y="0" width="29" height="29">
<path d="M0.5 28.78H28.5V0.780029H0.5V28.78Z" fill="white"/>
</mask>
<g mask="url(#mask0_1_3323)">
<path d="M8.2431 18.7701C8.1621 18.8551 8.0649 18.923 7.9572 18.9697C7.8494 19.0163 7.7334 19.0408 7.616 19.0417C7.4986 19.0426 7.3822 19.0199 7.2738 18.9748C7.1653 18.9298 7.0671 18.8634 6.9848 18.7796C6.9026 18.6958 6.8381 18.5963 6.7951 18.487C6.7521 18.3778 6.7316 18.261 6.7347 18.1436C6.7378 18.0262 6.7645 17.9107 6.8132 17.8038C6.8619 17.697 6.9316 17.6011 7.0181 17.5217L13.7206 10.9651C13.83 10.8298 13.9682 10.7208 14.1251 10.6459C14.2821 10.571 14.4538 10.5321 14.6277 10.5321C14.8016 10.5321 14.9733 10.571 15.1302 10.6459C15.2872 10.7208 15.4254 10.8298 15.5348 10.9651L22.2431 17.5217C22.3996 17.6861 22.4861 17.9048 22.4843 18.1317C22.4826 18.3586 22.3928 18.5759 22.2339 18.7379C22.075 18.8999 21.8593 18.9938 21.6325 18.9998C21.4057 19.0058 21.1854 18.9234 21.0181 18.7701L14.6014 12.5226L8.2431 18.7701Z" fill="white"/>
</g>
</g>
</g>
<defs>
<clipPath id="clip0_1_3323">
<rect width="28" height="28" fill="white" transform="matrix(-1 0 0 -1 28.5 28.78)"/>
</clipPath>
<clipPath id="clip1_1_3323">
<rect width="28" height="28" fill="white" transform="matrix(-1 0 0 -1 28.5 28.78)"/>
</clipPath>
</defs>
</svg>
