<svg width="143" height="32" viewBox="0 0 143 32" fill="none" xmlns="http://www.w3.org/2000/svg">
<g clip-path="url(#clip0_1_4785)">
<g clip-path="url(#clip1_1_4785)">
<g clip-path="url(#clip2_1_4785)">
<mask id="mask0_1_4785" style="mask-type:luminance" maskUnits="userSpaceOnUse" x="0" y="0" width="143" height="32">
<path d="M0.497559 0.551727H142.102V31.4483H0.497559V0.551727Z" fill="white"/>
</mask>
<g mask="url(#mask0_1_4785)">
<path d="M0.497559 13.4875C0.497559 7.21656 5.7588 2.10759 12.0429 2.10759C13.4873 2.08331 14.922 2.34815 16.2625 2.88652C17.603 3.42489 18.8224 4.22592 19.8487 5.24249L17.644 7.43725C16.1428 5.99007 14.1313 5.19348 12.0462 5.22042C7.46914 5.22042 3.89177 8.90594 3.89177 13.493C3.89177 18.08 7.46363 21.7633 12.0462 21.7633C15.0145 21.7633 16.7061 20.5705 17.7897 19.4869C18.678 18.5975 19.2584 17.3175 19.4813 15.5829H12.044V12.4601H22.5025C22.6206 13.1046 22.6769 13.7589 22.668 14.4132C22.668 16.7437 22.0325 19.6304 19.9778 21.685C17.9751 23.7584 15.4206 24.8574 12.044 24.8574C5.7577 24.8563 0.497559 19.7617 0.497559 13.4875ZM31.1182 21.9796C28.9014 21.9796 26.9858 20.1479 26.9858 17.5382C26.9858 14.9275 28.8981 13.0979 31.1182 13.0979C33.3362 13.0979 35.2462 14.9021 35.2462 17.5415C35.2462 20.1821 33.334 21.9796 31.1182 21.9796ZM31.1182 10.2135C27.0708 10.2135 23.7671 13.2977 23.7671 17.5371C23.7671 21.7766 27.0675 24.8552 31.1182 24.8552C35.1679 24.8552 38.4694 21.7457 38.4694 17.5327C38.4694 13.3175 35.1646 10.2113 31.1182 10.2113V10.2135ZM47.1514 21.9796C44.9334 21.9796 43.0178 20.1479 43.0178 17.5382C43.0178 14.9275 44.9312 13.0979 47.1502 13.0979C49.3693 13.0979 51.2838 14.9021 51.2838 17.5415C51.2838 20.1821 49.3693 21.9851 47.1502 21.9851L47.1514 21.9796ZM47.1514 10.2168C43.1039 10.2168 39.7991 13.301 39.7991 17.5404C39.7991 21.781 43.1006 24.8596 47.1502 24.8596C51.1999 24.8596 54.5014 21.7501 54.5014 17.536C54.5014 13.3219 51.1999 10.2113 47.1502 10.2113V10.2179L47.1514 10.2168ZM75.3246 2.88442H72.1058V24.4237H75.3246V2.88332V2.88442Z" fill="#202124"/>
<path d="M75.3246 2.88442H72.1059V24.4237H75.3246V2.88331V2.88442ZM83.8962 13.0428C85.1729 13.0428 86.2543 13.6806 86.614 14.5986L80.0683 17.3164C79.9834 14.485 82.2598 13.0439 83.8951 13.0439L83.8962 13.0428ZM84.1445 21.9807C82.507 21.9807 81.3428 21.2303 80.5947 19.765L90.3889 15.7109L90.059 14.8844C89.4488 13.2469 87.5917 10.2235 83.7914 10.2235C79.9889 10.2235 76.8838 13.1939 76.8838 17.5459C76.8838 21.6541 79.9911 24.8695 84.1522 24.8695C85.3591 24.8756 86.5486 24.5816 87.6138 24.0139C88.6789 23.4463 89.5863 22.6229 90.2543 21.6177L87.7583 19.9515C86.9197 21.1708 85.7831 21.9818 84.1456 21.9818L84.1445 21.9807ZM63.1503 21.9807C60.9334 21.9807 59.0719 20.1214 59.0719 17.5691C59.0719 15.0168 60.9312 13.1001 63.1503 13.1001C65.3693 13.1001 67.051 14.987 67.051 17.5691C67.051 20.1512 65.3373 21.9807 63.147 21.9807H63.1503ZM66.8314 10.656V11.8477H66.721C65.9983 10.9804 64.6123 10.2091 62.8656 10.2091C59.2043 10.2091 55.8477 13.429 55.8477 17.5647C55.8477 21.7004 59.2032 24.8563 62.8656 24.8563C64.6135 24.8563 65.9994 24.0861 66.7199 23.1912H66.8303V24.2461C66.8303 27.0488 65.334 28.5473 62.9296 28.5473C60.9599 28.5473 59.7406 27.1316 59.2463 25.9454L56.4435 27.1128C56.9705 28.4021 57.8713 29.5041 59.03 30.277C60.1887 31.0499 61.5523 31.4582 62.945 31.4494C66.7188 31.4494 69.9078 29.2315 69.9078 23.8157V10.656H66.8314ZM110.813 2.85242H99.9503V24.4557H110.813V2.85242ZM130.958 24.7978C137.112 24.7978 142.102 19.808 142.102 13.653C142.102 7.49904 137.112 2.50924 130.958 2.50924C124.803 2.50924 119.813 7.49904 119.813 13.6541C119.813 19.808 124.803 24.7978 130.958 24.7978ZM114.373 26.7553H112.28L118.239 0.551727H120.333L114.373 26.7553Z" fill="#202124"/>
</g>
</g>
</g>
</g>
<defs>
<clipPath id="clip0_1_4785">
<rect width="142.34" height="32" fill="white" transform="translate(0.5)"/>
</clipPath>
<clipPath id="clip1_1_4785">
<rect width="142.34" height="32" fill="white" transform="translate(0.5)"/>
</clipPath>
<clipPath id="clip2_1_4785">
<rect width="142.345" height="32" fill="white" transform="translate(0.497559)"/>
</clipPath>
</defs>
</svg>
