<svg width="121" height="49" viewBox="0 0 121 49" fill="none" xmlns="http://www.w3.org/2000/svg">
<g clip-path="url(#clip0_1_4753)">
<g clip-path="url(#clip1_1_4753)">
<path fill-rule="evenodd" clip-rule="evenodd" d="M10.2292 27.0385L10.2282 21.6694L15.4162 24.3632L10.2292 27.0385ZM21.6196 20.7392C21.6196 20.7392 21.432 19.4224 20.8563 18.8426C20.1262 18.0815 19.3078 18.0777 18.9326 18.0331C16.2458 17.8398 12.2155 17.8398 12.2155 17.8398H12.2072C12.2072 17.8398 8.17696 17.8398 5.4901 18.0331C5.11478 18.0777 4.2967 18.0815 3.56634 18.8426C2.99066 19.4224 2.80334 20.7392 2.80334 20.7392C2.80334 20.7392 2.61133 22.2856 2.61133 23.832V25.2817C2.61133 26.828 2.80334 28.3744 2.80334 28.3744C2.80334 28.3744 2.99066 29.6912 3.56634 30.2711C4.2967 31.0322 5.2561 31.0081 5.6834 31.0878C7.21942 31.2344 12.2113 31.2798 12.2113 31.2798C12.2113 31.2798 16.2458 31.2738 18.9326 31.0805C19.3078 31.0359 20.1262 31.0322 20.8563 30.2711C21.432 29.6912 21.6196 28.3744 21.6196 28.3744C21.6196 28.3744 21.8113 26.828 21.8113 25.2817V23.832C21.8113 22.2856 21.6196 20.7392 21.6196 20.7392Z" fill="#606368"/>
</g>
</g>
<g clip-path="url(#clip2_1_4753)">
<g clip-path="url(#clip3_1_4753)">
<g clip-path="url(#clip4_1_4753)">
<path d="M31.9392 13.9672C30.7333 14.0207 29.9098 14.2018 29.1899 14.4681C28.4448 14.7414 27.8133 15.1081 27.185 15.7016C26.5567 16.2951 26.1698 16.8899 25.8814 17.5922C25.6024 18.2712 25.4134 19.0469 25.3601 20.1825C25.3068 21.318 25.295 21.683 25.3009 24.5797C25.3068 27.4763 25.3204 27.8394 25.3789 28.9774C25.4365 30.112 25.6282 30.887 25.9111 31.5647C26.2019 32.2659 26.5911 32.86 27.222 33.4516C27.8528 34.0432 28.4843 34.4064 29.2323 34.6783C29.9531 34.9404 30.7775 35.1192 31.9838 35.169C33.1901 35.2187 33.5784 35.2302 36.6552 35.2246C39.7321 35.2191 40.1194 35.2063 41.3282 35.1523C42.537 35.0983 43.3561 34.9166 44.0763 34.6516C44.8214 34.3772 45.4531 34.0116 46.0813 33.4176C46.7094 32.8238 47.0961 32.2286 47.3842 31.5259C47.6634 30.8475 47.8531 30.0715 47.9055 28.937C47.9583 27.7984 47.9707 27.435 47.9649 24.5387C47.959 21.6425 47.9451 21.2794 47.8878 20.1419C47.8305 19.0044 47.6385 18.2319 47.3558 17.5538C47.0646 16.8525 46.6758 16.2588 46.0453 15.6668C45.4146 15.0748 44.7818 14.7111 44.0354 14.4406C43.3141 14.178 42.4902 13.999 41.2838 13.9499C40.0775 13.9008 39.6891 13.8882 36.6113 13.8938C33.5333 13.8993 33.148 13.9117 31.9392 13.9672ZM32.0715 33.25C30.9665 33.2048 30.3665 33.032 29.9667 32.8874C29.4372 32.6954 29.06 32.4632 28.6615 32.0918C28.2631 31.7204 28.0182 31.3642 27.8115 30.8668C27.6563 30.4906 27.4693 29.9264 27.4176 28.8864C27.3614 27.7624 27.3496 27.425 27.343 24.5771C27.3364 21.7293 27.348 21.3923 27.4003 20.2678C27.4475 19.2286 27.6322 18.6633 27.7857 18.2872C27.9897 17.7882 28.2354 17.4339 28.6309 17.059C29.0265 16.6842 29.4039 16.4534 29.9327 16.2588C30.3321 16.112 30.9314 15.9375 32.0359 15.888C33.2312 15.8347 33.5893 15.824 36.6147 15.8179C39.6401 15.8117 39.999 15.8223 41.1947 15.8718C42.2989 15.9171 42.8997 16.0892 43.2989 16.2345C43.8286 16.4265 44.2055 16.6571 44.6038 17.03C45.0021 17.4029 45.2475 17.7568 45.4543 18.2556C45.6105 18.6304 45.7959 19.1943 45.8481 20.2345C45.9049 21.3594 45.9178 21.6967 45.9233 24.5439C45.9287 27.391 45.9181 27.7291 45.8657 28.8532C45.8174 29.8932 45.6342 30.4582 45.4803 30.8348C45.2763 31.333 45.0305 31.6882 44.6346 32.0628C44.2389 32.4374 43.8619 32.6683 43.3329 32.8628C42.9339 33.0094 42.3339 33.1843 41.2303 33.2338C40.0351 33.2867 39.677 33.2978 36.6505 33.304C33.624 33.3102 33.2668 33.2987 32.0715 33.25ZM41.3107 18.8583C41.3113 19.1115 41.3914 19.3588 41.5413 19.5691C41.6911 19.7794 41.9038 19.9431 42.1526 20.0396C42.4013 20.1361 42.6747 20.161 42.9385 20.1111C43.2022 20.0613 43.4443 19.9389 43.6342 19.7596C43.8241 19.5802 43.9531 19.3519 44.0051 19.1035C44.0571 18.8551 44.0297 18.5978 43.9263 18.3641C43.8229 18.1303 43.6481 17.9307 43.4242 17.7905C43.2002 17.6502 42.9371 17.5756 42.6681 17.5762C42.3074 17.5768 41.9619 17.7123 41.7074 17.9527C41.4529 18.1932 41.3102 18.5189 41.3107 18.8583ZM30.8138 24.5699C30.8201 27.595 33.4304 30.0416 36.6439 30.0359C39.8574 30.0302 42.4589 27.5736 42.4527 24.5486C42.4466 21.5235 39.8357 19.0761 36.6217 19.0821C33.4078 19.088 30.8076 21.5452 30.8138 24.5699ZM32.8551 24.566C32.8537 23.8628 33.0738 23.175 33.4877 22.5895C33.9016 22.004 34.4906 21.5471 35.1804 21.2767C35.8701 21.0063 36.6296 20.9345 37.3627 21.0703C38.0958 21.2062 38.7697 21.5435 39.2991 22.0398C39.8285 22.5361 40.1897 23.169 40.3369 23.8584C40.4841 24.5479 40.4107 25.2629 40.1262 25.9132C39.8417 26.5634 39.3586 27.1196 38.7381 27.5115C38.1177 27.9034 37.3877 28.1132 36.6405 28.1146C36.1444 28.1156 35.6529 28.0246 35.1941 27.8468C34.7354 27.669 34.3183 27.4079 33.9668 27.0783C33.6153 26.7488 33.3362 26.3573 33.1455 25.9263C32.9547 25.4952 32.8561 25.033 32.8551 24.566Z" fill="#606368"/>
</g>
</g>
</g>
<g clip-path="url(#clip5_1_4753)">
<g clip-path="url(#clip6_1_4753)">
<path d="M68.043 15.1309H52.9572C51.9201 15.1309 51.081 15.9794 51.081 17.0166L51.0715 32.1023C51.0715 33.1394 51.9201 33.988 52.9572 33.988H68.043C69.0801 33.988 69.9287 33.1394 69.9287 32.1023V17.0166C69.9287 15.9794 69.0801 15.1309 68.043 15.1309ZM56.7287 31.1594H53.9001V22.6737H56.7287V31.1594ZM55.3144 21.0803C54.3715 21.0803 53.6078 20.3166 53.6078 19.3737C53.6078 18.4309 54.3715 17.6671 55.3144 17.6671C56.2572 17.6671 57.021 18.4309 57.021 19.3737C57.021 20.3166 56.2572 21.0803 55.3144 21.0803ZM67.1001 31.1594H64.2715V26.1623C64.2715 25.3797 63.6398 24.748 62.8572 24.748C62.0747 24.748 61.443 25.3797 61.443 26.1623V31.1594H58.6144V22.6737H61.443V23.8051C61.9332 23.0131 62.9421 22.4851 63.8001 22.4851C65.6198 22.4851 67.1001 23.9654 67.1001 25.7851V31.1594Z" fill="#606368"/>
</g>
</g>
<g clip-path="url(#clip7_1_4753)">
<g clip-path="url(#clip8_1_4753)">
<g clip-path="url(#clip9_1_4753)">
<path d="M86.5891 22.8253L94.7466 13.2656H92.8137L85.7304 21.5662L80.073 13.2656H73.5479L82.1029 25.8175L73.5479 35.8423H75.4811L82.9612 27.0766L88.9358 35.8423H95.4609L86.5891 22.8253ZM83.9413 25.9281L83.0745 24.6782L76.1776 14.7327H79.1469L84.7128 22.759L85.5796 24.0089L92.8145 34.4418H89.8453L83.9413 25.9281Z" fill="#606368"/>
</g>
</g>
</g>
<g clip-path="url(#clip10_1_4753)">
<g clip-path="url(#clip11_1_4753)">
<path d="M101.5 33.5596C100.95 33.5596 100.479 33.3638 100.088 32.9721C99.6958 32.5804 99.5 32.1096 99.5 31.5596C99.5 31.0096 99.6958 30.5388 100.088 30.1471C100.479 29.7554 100.95 29.5596 101.5 29.5596C102.05 29.5596 102.521 29.7554 102.912 30.1471C103.304 30.5388 103.5 31.0096 103.5 31.5596C103.5 32.1096 103.304 32.5804 102.912 32.9721C102.521 33.3638 102.05 33.5596 101.5 33.5596ZM113.5 33.5596C113.5 31.6096 113.133 29.7888 112.4 28.0971C111.667 26.4054 110.667 24.9263 109.4 23.6596C108.133 22.3929 106.654 21.3929 104.962 20.6596C103.271 19.9262 101.45 19.5596 99.5 19.5596V16.5596C101.867 16.5596 104.075 17.0012 106.125 17.8846C108.175 18.7679 109.975 19.9846 111.525 21.5346C113.075 23.0846 114.292 24.8846 115.175 26.9346C116.058 28.9846 116.5 31.1929 116.5 33.5596H113.5ZM107.5 33.5596C107.5 32.4429 107.292 31.4054 106.875 30.4471C106.458 29.4888 105.883 28.6429 105.15 27.9096C104.417 27.1763 103.571 26.6013 102.613 26.1846C101.654 25.7679 100.617 25.5596 99.5 25.5596V22.5596C101.033 22.5596 102.462 22.8471 103.787 23.4221C105.113 23.9971 106.275 24.7846 107.275 25.7846C108.275 26.7846 109.062 27.9471 109.637 29.2721C110.212 30.5971 110.5 32.0263 110.5 33.5596H107.5Z" fill="#606368"/>
</g>
</g>
<defs>
<clipPath id="clip0_1_4753">
<rect width="24" height="24" fill="white" transform="translate(0.5 12.5596)"/>
</clipPath>
<clipPath id="clip1_1_4753">
<rect width="24" height="24" fill="white" transform="translate(0.5 12.5596)"/>
</clipPath>
<clipPath id="clip2_1_4753">
<rect width="24" height="24" fill="white" transform="translate(24.5 12.5596)"/>
</clipPath>
<clipPath id="clip3_1_4753">
<rect width="24" height="24" fill="white" transform="translate(24.5 12.5596)"/>
</clipPath>
<clipPath id="clip4_1_4753">
<rect width="24" height="21.3333" fill="white" transform="translate(24.5 13.8926)"/>
</clipPath>
<clipPath id="clip5_1_4753">
<rect width="24" height="24" fill="white" transform="translate(48.5 12.5596)"/>
</clipPath>
<clipPath id="clip6_1_4753">
<rect width="24" height="24" fill="white" transform="translate(48.5 12.5596)"/>
</clipPath>
<clipPath id="clip7_1_4753">
<rect width="24" height="24" fill="white" transform="translate(72.5 12.5596)"/>
</clipPath>
<clipPath id="clip8_1_4753">
<rect width="24" height="24" fill="white" transform="translate(72.5 12.5596)"/>
</clipPath>
<clipPath id="clip9_1_4753">
<rect width="24" height="22.5882" fill="white" transform="translate(72.5 13.2656)"/>
</clipPath>
<clipPath id="clip10_1_4753">
<rect width="24" height="24" fill="white" transform="translate(96.5 12.5596)"/>
</clipPath>
<clipPath id="clip11_1_4753">
<rect width="24" height="24" fill="white" transform="translate(96.5 12.5596)"/>
</clipPath>
</defs>
</svg>
