<svg width="33" height="33" viewBox="0 0 33 33" fill="none" xmlns="http://www.w3.org/2000/svg">
<g clip-path="url(#clip0_1_3300)">
<g clip-path="url(#clip1_1_3300)">
<path d="M26.6333 28.78L18.2333 20.38C17.5667 20.9133 16.8 21.3356 15.9333 21.6467C15.0667 21.9578 14.1444 22.1133 13.1667 22.1133C10.7444 22.1133 8.69444 21.2744 7.01667 19.5967C5.33889 17.9189 4.5 15.8689 4.5 13.4467C4.5 11.0244 5.33889 8.97447 7.01667 7.2967C8.69444 5.61892 10.7444 4.78003 13.1667 4.78003C15.5889 4.78003 17.6389 5.61892 19.3167 7.2967C20.9944 8.97447 21.8333 11.0244 21.8333 13.4467C21.8333 14.4244 21.6778 15.3467 21.3667 16.2133C21.0556 17.08 20.6333 17.8467 20.1 18.5133L28.5 26.9133L26.6333 28.78ZM13.1667 19.4467C14.8333 19.4467 16.25 18.8633 17.4167 17.6967C18.5833 16.53 19.1667 15.1133 19.1667 13.4467C19.1667 11.78 18.5833 10.3634 17.4167 9.1967C16.25 8.03003 14.8333 7.4467 13.1667 7.4467C11.5 7.4467 10.0833 8.03003 8.91667 9.1967C7.75 10.3634 7.16667 11.78 7.16667 13.4467C7.16667 15.1133 7.75 16.53 8.91667 17.6967C10.0833 18.8633 11.5 19.4467 13.1667 19.4467Z" fill="#606368"/>
</g>
</g>
<defs>
<clipPath id="clip0_1_3300">
<rect width="32" height="32" fill="white" transform="translate(0.5 0.780029)"/>
</clipPath>
<clipPath id="clip1_1_3300">
<rect width="32" height="32" fill="white" transform="translate(0.5 0.780029)"/>
</clipPath>
</defs>
</svg>
