<svg width="53" height="73" viewBox="0 0 53 73" fill="none" xmlns="http://www.w3.org/2000/svg">
<rect x="5.5" y="25.63" width="46" height="22" rx="11" stroke="#202124" stroke-width="2"/>
<rect x="1.5" y="21.63" width="24" height="30" rx="12" fill="#F3F4F6"/>
<rect x="1.5" y="21.63" width="24" height="30" rx="12" stroke="#202124" stroke-width="2"/>
<path d="M4.38934 40.63H3.07897L6.0233 32.4482H7.44953L10.3939 40.63H9.0835L6.77037 33.9343H6.70645L4.38934 40.63ZM4.60906 37.426H8.85977V38.4647H4.60906V37.426ZM15.9719 34.5975C15.9293 34.2193 15.7535 33.9263 15.4446 33.7186C15.1356 33.5082 14.7468 33.403 14.278 33.403C13.9424 33.403 13.6521 33.4563 13.4071 33.5628C13.1621 33.6667 12.9717 33.8105 12.8358 33.9943C12.7027 34.1754 12.6361 34.3818 12.6361 34.6135C12.6361 34.8079 12.6814 34.9757 12.7719 35.1169C12.8651 35.258 12.9863 35.3765 13.1355 35.4724C13.2873 35.5656 13.4497 35.6442 13.6228 35.7081C13.796 35.7694 13.9624 35.82 14.1222 35.8599L14.9212 36.0677C15.1822 36.1316 15.4499 36.2182 15.7242 36.3274C15.9986 36.4366 16.2529 36.5804 16.4873 36.7588C16.7217 36.9373 16.9108 37.1583 17.0546 37.422C17.2011 37.6857 17.2743 38.0013 17.2743 38.3688C17.2743 38.8322 17.1545 39.2437 16.9148 39.6033C16.6777 39.9628 16.3328 40.2465 15.88 40.4542C15.4299 40.662 14.8853 40.7658 14.2461 40.7658C13.6335 40.7658 13.1035 40.6686 12.6561 40.4742C12.2086 40.2798 11.8584 40.0041 11.6054 39.6472C11.3523 39.2877 11.2125 38.8615 11.1859 38.3688H12.4243C12.4483 38.6645 12.5442 38.9108 12.712 39.1079C12.8824 39.3023 13.0995 39.4475 13.3632 39.5434C13.6295 39.6366 13.9211 39.6832 14.2381 39.6832C14.587 39.6832 14.8973 39.6286 15.1689 39.5194C15.4432 39.4075 15.659 39.2531 15.8161 39.056C15.9733 38.8562 16.0518 38.6232 16.0518 38.3568C16.0518 38.1145 15.9826 37.916 15.8441 37.7616C15.7083 37.6071 15.5231 37.4793 15.2888 37.3781C15.0571 37.2768 14.7947 37.1876 14.5018 37.1104L13.535 36.8467C12.8798 36.6683 12.3604 36.4059 11.9769 36.0597C11.596 35.7135 11.4056 35.2554 11.4056 34.6854C11.4056 34.214 11.5334 33.8025 11.7891 33.4509C12.0448 33.0994 12.391 32.8264 12.8278 32.632C13.2646 32.4349 13.7573 32.3363 14.306 32.3363C14.86 32.3363 15.3487 32.4335 15.7722 32.628C16.1983 32.8224 16.5339 33.0901 16.7789 33.431C17.0239 33.7692 17.1518 34.1581 17.1624 34.5975H15.9719ZM18.7495 40.63V32.4482H19.9839V39.5673H23.6913V40.63H18.7495Z" fill="#202124"/>
</svg>
