<svg width="148" height="32" viewBox="0 0 148 32" fill="none" xmlns="http://www.w3.org/2000/svg">
<g clip-path="url(#clip0_1_221)">
<g clip-path="url(#clip1_1_221)">
<g clip-path="url(#clip2_1_221)">
<path d="M0.494995 13.3969C0.494995 6.89951 5.94192 1.60779 12.4471 1.60779C15.4653 1.55789 18.3768 2.72862 20.5233 4.85547L18.2421 7.12806C16.6882 5.62798 14.6066 4.80159 12.4481 4.82853C7.71034 4.82853 4.00692 8.64611 4.00692 13.3969C4.00692 18.1476 7.70337 21.9632 12.4481 21.9632C15.5211 21.9632 17.2707 20.7276 18.3927 19.6048C19.3124 18.6836 19.9138 17.3592 20.1452 15.5617H12.4491V12.332H23.2752C23.3978 12.9986 23.4556 13.6753 23.4476 14.353C23.4476 16.7674 22.7883 19.7565 20.6618 21.8853C18.5892 24.0322 15.947 25.171 12.4491 25.171C5.94192 25.172 0.494995 19.8943 0.494995 13.3969Z" fill="white"/>
<path d="M32.1866 22.1974C29.8896 22.1974 27.9088 20.3002 27.9088 17.5984C27.9088 14.8966 29.8896 12.9984 32.1866 12.9984C34.4837 12.9984 36.4646 14.8667 36.4646 17.5984C36.4646 20.3301 34.4837 22.2004 32.1866 22.2004V22.1974ZM32.1866 10.0102C27.9945 10.0102 24.5783 13.2019 24.5783 17.5994C24.5783 21.9969 27.9945 25.1796 32.1866 25.1796C36.3788 25.1796 39.796 21.9589 39.796 17.5904C39.796 13.2219 36.3798 10.0102 32.1866 10.0102Z" fill="white"/>
<path d="M48.7866 22.1974C46.4896 22.1974 44.5087 20.3002 44.5087 17.5984C44.5087 14.8966 46.4896 12.9984 48.7866 12.9984C51.0837 12.9984 53.0646 14.8667 53.0646 17.5984C53.0646 20.3301 51.0837 22.2004 48.7866 22.2004V22.1974ZM48.7866 10.0102C44.5944 10.0102 41.1772 13.2019 41.1772 17.5994C41.1772 21.9969 44.5935 25.1796 48.7866 25.1796C52.9798 25.1796 56.395 21.9589 56.395 17.5904C56.395 13.2219 52.9788 10.0102 48.7866 10.0102Z" fill="white"/>
<path d="M77.9493 2.41432H74.6179V24.723H77.9493V2.41432Z" fill="white"/>
<path d="M77.9493 2.41432H74.6179V24.723H77.9493V2.41432Z" fill="white"/>
<path d="M86.8219 12.9385C88.1435 12.9385 89.2627 13.5991 89.6347 14.5483L82.8582 17.3648C82.7704 14.4316 85.1264 12.9385 86.8199 12.9385H86.8219ZM87.0803 22.1965C85.3866 22.1965 84.1798 21.419 83.4058 19.8969L93.5426 15.6991L93.2015 14.8437C92.5691 13.1481 90.646 10.0151 86.7123 10.0151C82.7784 10.0151 79.5627 13.0922 79.5627 17.6044C79.5627 21.8581 82.7794 25.1936 87.0863 25.1936C89.6238 25.2066 91.9976 23.941 93.403 21.8252L90.8186 20.1005C89.9509 21.3581 88.7729 22.1984 87.0793 22.1984L87.0803 22.1965Z" fill="white"/>
<path d="M65.3483 22.1938C63.0512 22.1938 61.1262 20.2666 61.1262 17.6237C61.1262 14.9808 63.0512 12.9947 65.3483 12.9947C67.6454 12.9947 69.3859 14.9489 69.3859 17.6237C69.3859 20.2986 67.6115 22.1938 65.3433 22.1938H65.3483ZM69.1614 10.4636V11.6962H69.0468C68.2997 10.798 66.8644 10.0005 65.0561 10.0005C61.2648 10.0005 57.7908 13.336 57.7908 17.6187C57.7908 21.9014 61.2659 25.172 65.0561 25.172C66.8644 25.172 68.2997 24.3676 69.0468 23.4474H69.1614V24.5393C69.1614 27.4427 67.6115 28.9946 65.1239 28.9946C63.0852 28.9946 61.8223 27.5284 61.3108 26.2998L58.4102 27.5085C59.5273 30.2402 62.1914 32.0188 65.1398 31.9998C69.0447 31.9998 72.3473 29.7003 72.3473 24.0941V10.4636H69.1614Z" fill="white"/>
<path d="M114.684 2.38512H103.441V24.7606H114.684V2.38512Z" fill="white"/>
<path d="M135.536 25.1121C141.907 25.1121 147.072 19.9443 147.072 13.5695C147.072 7.19477 141.907 2.02698 135.536 2.02698C129.166 2.02698 124.001 7.19477 124.001 13.5695C124.001 19.9443 129.166 25.1121 135.536 25.1121Z" fill="white"/>
<path d="M118.369 27.1412H116.202L122.369 0H124.537L118.369 27.1412Z" fill="white"/>
</g>
</g>
</g>
<defs>
<clipPath id="clip0_1_221">
<rect width="147.19" height="32" fill="white" transform="translate(0.5)"/>
</clipPath>
<clipPath id="clip1_1_221">
<rect width="147.19" height="32" fill="white" transform="translate(0.5)"/>
</clipPath>
<clipPath id="clip2_1_221">
<rect width="147.2" height="32" fill="white" transform="translate(0.494995)"/>
</clipPath>
</defs>
</svg>
