<svg width="26" height="24" viewBox="0 0 26 24" fill="none" xmlns="http://www.w3.org/2000/svg">
<g clip-path="url(#clip0_112_1271)">
<g clip-path="url(#clip1_112_1271)">
<path d="M6.06312 20.5C5.55795 20.5 5.13037 20.325 4.78037 19.975C4.43037 19.625 4.25537 19.1974 4.25537 18.6923V5.30775C4.25537 4.80258 4.43037 4.375 4.78037 4.025C5.13037 3.675 5.55795 3.5 6.06312 3.5H12.3706V5H6.06312C5.98612 5 5.91562 5.03208 5.85162 5.09625C5.78745 5.16025 5.75537 5.23075 5.75537 5.30775V18.6923C5.75537 18.7692 5.78745 18.8398 5.85162 18.9038C5.91562 18.9679 5.98612 19 6.06312 19H19.4477C19.5246 19 19.5952 18.9679 19.6592 18.9038C19.7233 18.8398 19.7554 18.7692 19.7554 18.6923V12.3848H21.2554V18.6923C21.2554 19.1974 21.0804 19.625 20.7304 19.975C20.3804 20.325 19.9528 20.5 19.4477 20.5H6.06312ZM10.4746 15.3345L9.42087 14.2808L18.7016 5H14.7554V3.5H21.2554V10H19.7554V6.05375L10.4746 15.3345Z" fill="#E8EAED"/>
</g>
</g>
<defs>
<clipPath id="clip0_112_1271">
<rect width="25" height="24" fill="white" transform="translate(0.255371)"/>
</clipPath>
<clipPath id="clip1_112_1271">
<rect width="25" height="24" fill="white" transform="translate(0.255371)"/>
</clipPath>
</defs>
</svg>
